<?xml version="1.0" encoding="utf-8"?>
<!-- Generator: Adobe Illustrator 27.5.0, SVG Export Plug-In . SVG Version: 6.00 Build 0)  -->
<svg version="1.1" id="Layer_2_00000145044679210251666970000003038968893723673273_"
	 xmlns="http://www.w3.org/2000/svg" xmlns:xlink="http://www.w3.org/1999/xlink" x="0px" y="0px" viewBox="0 0 1033 224.9"
	 style="enable-background:new 0 0 1033 224.9;" xml:space="preserve">
<style type="text/css">
	.st0{enable-background:new    ;}
	.st1{fill:#2D9F48;}
	.st2{fill:#545554;}
</style>
<g id="Layer_1-2">
	<g class="st0">
		<path class="st1" d="M95.6,58c3.3,0,6,1.1,8.2,3.2c2.2,2.2,3.2,4.9,3.2,8.4v80.4c0,3.3-1.1,6-3.2,8.3c-2.2,2.2-4.9,3.3-8.2,3.3
			c-3.3,0-6-1.1-8.2-3.3c-2.2-2.2-3.2-5-3.2-8.3v-9.3l4.2,1.7c0,1.6-0.9,3.6-2.7,6c-1.8,2.3-4.2,4.7-7.2,6.9
			c-3,2.3-6.6,4.2-10.7,5.8c-4.1,1.6-8.6,2.4-13.4,2.4c-8.7,0-16.7-2.2-23.8-6.7c-7.1-4.5-12.7-10.7-16.8-18.6
			c-4.1-7.9-6.2-17-6.2-27.3c0-10.4,2.1-19.5,6.2-27.5c4.1-7.9,9.7-14.1,16.6-18.6c7-4.5,14.7-6.7,23.2-6.7c5.4,0,10.4,0.8,15,2.5
			c4.6,1.6,8.5,3.7,11.9,6.3c3.4,2.5,6,5.1,7.8,7.7c1.8,2.6,2.8,4.8,2.8,6.6l-6.8,2.5V69.5c0-3.3,1.1-6,3.2-8.3
			C89.6,59.1,92.3,58,95.6,58z M57.2,142.5c5.6,0,10.5-1.4,14.6-4.2c4.2-2.8,7.4-6.6,9.8-11.4c2.3-4.8,3.5-10.2,3.5-16.2
			c0-6.1-1.2-11.5-3.5-16.3c-2.3-4.8-5.6-8.6-9.8-11.4c-4.2-2.8-9.1-4.2-14.6-4.2c-5.4,0-10.3,1.4-14.4,4.2
			c-4.2,2.8-7.4,6.6-9.8,11.4c-2.3,4.8-3.5,10.3-3.5,16.3c0,6,1.2,11.3,3.5,16.2c2.3,4.8,5.6,8.6,9.8,11.4
			C46.9,141.1,51.7,142.5,57.2,142.5z"/>
		<path class="st1" d="M156.4,149.9c0,3.3-1.1,6-3.3,8.3c-2.2,2.2-5,3.3-8.3,3.3c-3.2,0-5.8-1.1-8-3.3c-2.2-2.2-3.2-5-3.2-8.3V32.5
			c0-3.3,1.1-6,3.3-8.3c2.2-2.2,5-3.3,8.3-3.3c3.3,0,6,1.1,8.1,3.3c2.1,2.2,3.1,5,3.1,8.3V149.9z"/>
		<path class="st1" d="M235.6,58c8.9,0,16.8,2.2,23.8,6.7c7,4.5,12.6,10.7,16.7,18.5c4.1,7.9,6.2,17,6.2,27.4
			c0,10.4-2.1,19.5-6.2,27.5c-4.1,7.9-9.6,14.1-16.5,18.6c-6.9,4.5-14.7,6.7-23.3,6.7c-5.1,0-9.8-0.8-14.2-2.5
			c-4.4-1.6-8.3-3.7-11.7-6.3c-3.4-2.5-6-5.1-7.8-7.7c-1.8-2.6-2.8-4.8-2.8-6.6l5.9-2.5v50c0,3.3-1.1,6-3.2,8.3
			c-2.2,2.2-4.9,3.3-8.2,3.3c-3.3,0-6-1.1-8.2-3.2c-2.2-2.2-3.2-4.9-3.2-8.4V71.4c0-3.3,1.1-6,3.2-8.3c2.2-2.2,4.9-3.3,8.2-3.3
			c3.3,0,6,1.1,8.2,3.3c2.2,2.2,3.2,5,3.2,8.3v9.3l-3.2-1.7c0-1.6,0.9-3.6,2.7-6c1.8-2.3,4.2-4.7,7.2-7c3-2.3,6.6-4.3,10.5-5.8
			C227,58.7,231.2,58,235.6,58z M232.7,78.8c-5.6,0-10.4,1.4-14.6,4.2c-4.2,2.8-7.4,6.6-9.8,11.3c-2.3,4.8-3.5,10.2-3.5,16.2
			c0,6,1.2,11.4,3.5,16.2c2.3,4.9,5.6,8.7,9.8,11.5c4.2,2.8,9.1,4.2,14.6,4.2c5.6,0,10.4-1.4,14.5-4.2c4.1-2.8,7.3-6.6,9.7-11.5
			c2.3-4.9,3.5-10.3,3.5-16.2c0-6.1-1.2-11.5-3.5-16.2c-2.3-4.8-5.6-8.5-9.7-11.3C243.2,80.2,238.3,78.8,232.7,78.8z"/>
		<path class="st1" d="M355.7,58c9.1,0,16.1,2,20.8,5.9c4.8,3.9,8,9.2,9.8,15.7c1.8,6.5,2.7,13.8,2.7,21.8v48.6c0,3.3-1.1,6-3.2,8.3
			c-2.2,2.2-4.9,3.3-8.2,3.3c-3.3,0-6-1.1-8.2-3.3c-2.2-2.2-3.2-5-3.2-8.3v-48.6c0-4.2-0.5-7.9-1.5-11.3c-1-3.4-2.9-6-5.5-8.1
			c-2.7-2-6.5-3-11.4-3c-4.8,0-8.9,1-12.3,3c-3.4,2-6,4.7-7.7,8.1c-1.7,3.4-2.6,7.1-2.6,11.3v48.6c0,3.3-1.1,6-3.2,8.3
			c-2.2,2.2-4.9,3.3-8.2,3.3c-3.3,0-6-1.1-8.2-3.3c-2.2-2.2-3.2-5-3.2-8.3V32.5c0-3.3,1.1-6,3.2-8.3c2.2-2.2,4.9-3.3,8.2-3.3
			c3.3,0,6,1.1,8.2,3.3c2.2,2.2,3.2,5,3.2,8.3v47.1l-2.9-0.6c1.1-2.2,2.7-4.5,4.8-6.9c2-2.5,4.5-4.8,7.4-6.9
			c2.9-2.2,6.1-3.9,9.7-5.2C347.6,58.6,351.5,58,355.7,58z"/>
		<path class="st1" d="M496.8,58c3.3,0,6,1.1,8.2,3.2c2.2,2.2,3.2,4.9,3.2,8.4v80.4c0,3.3-1.1,6-3.2,8.3c-2.2,2.2-4.9,3.3-8.2,3.3
			c-3.3,0-6-1.1-8.2-3.3c-2.2-2.2-3.2-5-3.2-8.3v-9.3l4.2,1.7c0,1.6-0.9,3.6-2.7,6c-1.8,2.3-4.2,4.7-7.2,6.9
			c-3,2.3-6.6,4.2-10.7,5.8c-4.1,1.6-8.6,2.4-13.4,2.4c-8.7,0-16.7-2.2-23.8-6.7c-7.1-4.5-12.7-10.7-16.8-18.6
			c-4.1-7.9-6.2-17-6.2-27.3c0-10.4,2.1-19.5,6.2-27.5c4.1-7.9,9.7-14.1,16.6-18.6c7-4.5,14.7-6.7,23.2-6.7c5.4,0,10.4,0.8,15,2.5
			c4.6,1.6,8.5,3.7,11.9,6.3c3.4,2.5,6,5.1,7.8,7.7c1.8,2.6,2.8,4.8,2.8,6.6l-6.8,2.5V69.5c0-3.3,1.1-6,3.2-8.3
			C490.8,59.1,493.5,58,496.8,58z M458.5,142.5c5.6,0,10.5-1.4,14.6-4.2c4.2-2.8,7.4-6.6,9.8-11.4c2.3-4.8,3.5-10.2,3.5-16.2
			c0-6.1-1.2-11.5-3.5-16.3c-2.3-4.8-5.6-8.6-9.8-11.4c-4.2-2.8-9.1-4.2-14.6-4.2c-5.4,0-10.3,1.4-14.4,4.2
			c-4.2,2.8-7.4,6.6-9.8,11.4c-2.3,4.8-3.5,10.3-3.5,16.3c0,6,1.2,11.3,3.5,16.2c2.3,4.8,5.6,8.6,9.8,11.4
			C448.2,141.1,453,142.5,458.5,142.5z"/>
	</g>
	<g class="st0">
		<path class="st2" d="M577.6,163.4c-8.9,0-16.8-1.1-23.9-3.3c-7.1-2.2-13.9-6.1-20.3-11.7c-1.6-1.4-2.9-3-3.8-4.8
			c-0.9-1.8-1.3-3.5-1.3-5.3c0-2.9,1-5.5,3.1-7.7c2.1-2.2,4.7-3.3,7.9-3.3c2.4,0,4.6,0.8,6.5,2.3c4.8,3.9,9.6,6.9,14.3,8.9
			c4.8,2,10.6,3,17.6,3c4.7,0,9-0.7,12.9-2.2c3.9-1.5,7.1-3.4,9.5-5.9c2.4-2.5,3.6-5.3,3.6-8.5c0-3.8-1.1-7-3.4-9.7
			s-5.8-4.9-10.5-6.7c-4.7-1.8-10.6-3.3-17.9-4.3c-6.8-1-12.9-2.6-18-4.7c-5.2-2.1-9.5-4.8-13-8c-3.5-3.2-6.1-7-7.9-11.4
			c-1.8-4.4-2.7-9.3-2.7-14.7c0-8.2,2.1-15.3,6.4-21.1c4.2-5.8,10-10.3,17.2-13.3c7.2-3,15.2-4.6,23.9-4.6c8.2,0,15.9,1.2,22.9,3.7
			c7,2.5,12.8,5.6,17.2,9.4c3.7,2.9,5.5,6.3,5.5,10.1c0,2.8-1.1,5.3-3.2,7.6c-2.2,2.3-4.7,3.4-7.6,3.4c-1.9,0-3.6-0.6-5.1-1.7
			c-2-1.8-4.8-3.4-8.2-5c-3.4-1.6-7-2.9-10.8-4c-3.8-1.1-7.3-1.6-10.6-1.6c-5.4,0-10,0.7-13.8,2.1c-3.7,1.4-6.6,3.3-8.5,5.7
			c-1.9,2.4-2.8,5.2-2.8,8.4c0,3.8,1.1,6.9,3.3,9.4c2.2,2.5,5.4,4.4,9.6,5.9c4.2,1.5,9.2,2.8,15,3.9c7.6,1.4,14.3,3,20,4.9
			c5.8,1.9,10.5,4.3,14.3,7.3c3.8,3,6.6,6.7,8.5,11.2c1.9,4.5,2.8,10,2.8,16.4c0,8.2-2.3,15.3-6.8,21.3c-4.6,6-10.5,10.5-18,13.7
			C594.2,161.8,586.2,163.4,577.6,163.4z"/>
	</g>
	<g class="st0">
		<path class="st2" d="M729.6,58c3.3,0,6,1.1,8.2,3.2c2.2,2.2,3.2,4.9,3.2,8.4v80.4c0,3.3-1.1,6-3.2,8.3c-2.2,2.2-4.9,3.3-8.2,3.3
			c-3.3,0-6-1.1-8.2-3.3c-2.2-2.2-3.2-5-3.2-8.3v-9.3l4.2,1.7c0,1.6-0.9,3.6-2.7,6c-1.8,2.3-4.2,4.7-7.2,6.9
			c-3,2.3-6.6,4.2-10.7,5.8c-4.1,1.6-8.6,2.4-13.4,2.4c-8.7,0-16.7-2.2-23.8-6.7c-7.1-4.5-12.7-10.7-16.8-18.6
			c-4.1-7.9-6.2-17-6.2-27.3c0-10.4,2.1-19.5,6.2-27.5c4.1-7.9,9.7-14.1,16.6-18.6c7-4.5,14.7-6.7,23.2-6.7c5.4,0,10.5,0.8,15,2.5
			c4.6,1.6,8.5,3.7,11.9,6.3c3.4,2.5,6,5.1,7.8,7.7c1.8,2.6,2.8,4.8,2.8,6.6l-6.8,2.5V69.5c0-3.3,1.1-6,3.2-8.3
			C723.6,59.1,726.3,58,729.6,58z M691.2,142.5c5.6,0,10.5-1.4,14.6-4.2c4.2-2.8,7.4-6.6,9.8-11.4c2.3-4.8,3.5-10.2,3.5-16.2
			c0-6.1-1.2-11.5-3.5-16.3c-2.3-4.8-5.6-8.6-9.8-11.4c-4.2-2.8-9.1-4.2-14.6-4.2c-5.4,0-10.3,1.4-14.4,4.2
			c-4.2,2.8-7.4,6.6-9.8,11.4c-2.3,4.8-3.5,10.3-3.5,16.3c0,6,1.2,11.3,3.5,16.2c2.3,4.8,5.6,8.6,9.8,11.4
			C681,141.1,685.8,142.5,691.2,142.5z"/>
	</g>
	<g class="st0">
		<path class="st2" d="M850.8,58c3.3,0,6,1.1,8.2,3.2c2.2,2.2,3.2,4.9,3.2,8.4v80.4c0,3.3-1.1,6-3.2,8.3c-2.2,2.2-4.9,3.3-8.2,3.3
			c-3.3,0-6-1.1-8.2-3.3c-2.2-2.2-3.2-5-3.2-8.3v-9.3l4.2,1.7c0,1.6-0.9,3.6-2.7,6c-1.8,2.3-4.2,4.7-7.2,6.9
			c-3,2.3-6.6,4.2-10.7,5.8c-4.1,1.6-8.6,2.4-13.4,2.4c-8.7,0-16.7-2.2-23.8-6.7c-7.1-4.5-12.7-10.7-16.8-18.6
			c-4.1-7.9-6.2-17-6.2-27.3c0-10.4,2.1-19.5,6.2-27.5c4.1-7.9,9.7-14.1,16.6-18.6c7-4.5,14.7-6.7,23.2-6.7c5.4,0,10.4,0.8,15,2.5
			c4.6,1.6,8.5,3.7,11.9,6.3c3.4,2.5,6,5.1,7.8,7.7c1.8,2.6,2.8,4.8,2.8,6.6l-6.8,2.5V69.5c0-3.3,1.1-6,3.2-8.3
			C844.8,59.1,847.5,58,850.8,58z M812.4,142.5c5.6,0,10.5-1.4,14.6-4.2c4.2-2.8,7.4-6.6,9.8-11.4c2.3-4.8,3.5-10.2,3.5-16.2
			c0-6.1-1.2-11.5-3.5-16.3c-2.3-4.8-5.6-8.6-9.8-11.4c-4.2-2.8-9.1-4.2-14.6-4.2c-5.4,0-10.3,1.4-14.4,4.2
			c-4.2,2.8-7.4,6.6-9.8,11.4c-2.3,4.8-3.5,10.3-3.5,16.3c0,6,1.2,11.3,3.5,16.2c2.3,4.8,5.6,8.6,9.8,11.4
			C802.2,141.1,807,142.5,812.4,142.5z"/>
		<path class="st2" d="M931.6,163.4c-8.9,0-16.8-1.1-23.9-3.3c-7.1-2.2-13.9-6.1-20.3-11.7c-1.6-1.4-2.9-3-3.8-4.8
			c-0.9-1.8-1.3-3.5-1.3-5.3c0-2.9,1-5.5,3.1-7.7c2.1-2.2,4.7-3.3,7.9-3.3c2.4,0,4.6,0.8,6.5,2.3c4.8,3.9,9.6,6.9,14.3,8.9
			c4.8,2,10.6,3,17.6,3c4.7,0,9-0.7,12.9-2.2c3.9-1.5,7.1-3.4,9.5-5.9c2.4-2.5,3.6-5.3,3.6-8.5c0-3.8-1.1-7-3.4-9.7
			c-2.3-2.7-5.8-4.9-10.4-6.7c-4.7-1.8-10.6-3.3-17.9-4.3c-6.8-1-12.9-2.6-18-4.7c-5.2-2.1-9.5-4.8-13-8c-3.5-3.2-6.1-7-7.9-11.4
			c-1.8-4.4-2.7-9.3-2.7-14.7c0-8.2,2.1-15.3,6.4-21.1c4.2-5.8,10-10.3,17.2-13.3c7.2-3,15.2-4.6,23.9-4.6c8.2,0,15.9,1.2,22.9,3.7
			c7,2.5,12.8,5.6,17.2,9.4c3.7,2.9,5.5,6.3,5.5,10.1c0,2.8-1.1,5.3-3.2,7.6c-2.2,2.3-4.7,3.4-7.6,3.4c-1.9,0-3.6-0.6-5.1-1.7
			c-2-1.8-4.8-3.4-8.2-5c-3.4-1.6-7-2.9-10.8-4c-3.8-1.1-7.3-1.6-10.6-1.6c-5.4,0-10,0.7-13.8,2.1c-3.7,1.4-6.6,3.3-8.5,5.7
			c-1.9,2.4-2.9,5.2-2.9,8.4c0,3.8,1.1,6.9,3.3,9.4c2.2,2.5,5.4,4.4,9.6,5.9c4.2,1.5,9.2,2.8,15,3.9c7.6,1.4,14.3,3,20,4.9
			c5.8,1.9,10.5,4.3,14.3,7.3c3.8,3,6.7,6.7,8.5,11.2c1.9,4.5,2.9,10,2.9,16.4c0,8.2-2.3,15.3-6.8,21.3c-4.6,6-10.5,10.5-18,13.7
			C948.2,161.8,940.2,163.4,931.6,163.4z"/>
	</g>
</g>
</svg>
