<svg xmlns="http://www.w3.org/2000/svg" width="23" height="20.002" viewBox="0 0 23 20.002">
  <g id="briefcase" transform="translate(0 -32.857)">
    <path id="Path_84" data-name="Path 84" d="M20.705,36.577H15.752v-2a1.726,1.726,0,0,0-1.724-1.724H8.971a1.726,1.726,0,0,0-1.724,1.724v2H2.293A2.291,2.291,0,0,0,0,38.865,4.756,4.756,0,0,0,.756,42.2,3.726,3.726,0,0,0,2.709,43.55l7.635,2.223a4.127,4.127,0,0,0,2.311,0L20.29,43.55A3.726,3.726,0,0,0,22.243,42.2a4.759,4.759,0,0,0,.751-3.333,2.291,2.291,0,0,0-2.288-2.289Zm-12-2a.264.264,0,0,1,.264-.264h5.058a.264.264,0,0,1,.264.264v2H8.707Z" fill="#87c3c4"/>
    <path id="Path_85" data-name="Path 85" d="M20.81,268.944c-8.235,2.4-8.128,2.446-9.2,2.446s-.81,0-9.2-2.446a5.169,5.169,0,0,1-2.3-1.387v7.006a2.291,2.291,0,0,0,2.289,2.289H20.817a2.291,2.291,0,0,0,2.289-2.289v-7.006a5.17,5.17,0,0,1-2.3,1.387Z" transform="translate(-0.112 -223.992)" fill="#87c3c4"/>
  </g>
</svg>
