<svg xmlns="http://www.w3.org/2000/svg" width="24" height="23.97" viewBox="0 0 24 23.97">
  <path id="brightness" d="M2.71,15.82V18.5a2.765,2.765,0,0,0,2.76,2.76H8.15l1.9,1.9a2.752,2.752,0,0,0,3.9,0l1.9-1.9h2.68a2.765,2.765,0,0,0,2.76-2.76V15.82l1.9-1.9a2.752,2.752,0,0,0,0-3.9l-1.9-1.9V5.44a2.766,2.766,0,0,0-2.76-2.76H15.85L13.95.78a2.828,2.828,0,0,0-3.9,0l-1.9,1.9H5.47A2.766,2.766,0,0,0,2.71,5.44V8.12l-1.9,1.9a2.752,2.752,0,0,0,0,3.9ZM12,5.97a.755.755,0,0,1,.75.75v10.5a.755.755,0,0,1-.75.75,5.8,5.8,0,0,1-6-6A5.8,5.8,0,0,1,12,5.97Zm0,0" fill="#87c3c4"/>
</svg>
