<svg xmlns="http://www.w3.org/2000/svg" width="14.759" height="13.396" viewBox="0 0 14.759 13.396">
  <g id="Intuit_QuickBooks_logo" transform="translate(-2.925 -3.606)">
    <path id="Path_49" data-name="Path 49" d="M12.5,22.2a3.974,3.974,0,0,0,3.974,3.974h.568V24.7h-.568a2.5,2.5,0,1,1,0-5h1.362v7.72A1.476,1.476,0,0,0,19.312,28.9V18.225H16.474A3.974,3.974,0,0,0,12.5,22.2Zm10.785-3.974h-.568V19.7h.568a2.5,2.5,0,0,1,0,5H21.923v-7.72A1.476,1.476,0,0,0,20.447,15.5V26.172h2.838a3.974,3.974,0,1,0,0-7.947Z" transform="translate(-9.575 -11.894)" fill="#fff"/>
  </g>
</svg>
