<svg xmlns="http://www.w3.org/2000/svg" width="24" height="22.725" viewBox="0 0 24 22.725">
  <g id="Layer_2" data-name="Layer 2" transform="translate(-1 -1.804)">
    <path id="Path_81" data-name="Path 81" d="M23.568,9.833A3.136,3.136,0,0,1,21.1,5.593a1.472,1.472,0,0,0-.44-1.656,11.8,11.8,0,0,0-3.52-2.04,1.48,1.48,0,0,0-1.672.464,3.128,3.128,0,0,1-4.928,0A1.48,1.48,0,0,0,8.864,1.9a11.856,11.856,0,0,0-3.28,1.84,1.488,1.488,0,0,0-.464,1.7,3.12,3.12,0,0,1-2.6,4.288,1.48,1.48,0,0,0-1.3,1.192A11.312,11.312,0,0,0,1,13.161a11.456,11.456,0,0,0,.152,1.88,1.48,1.48,0,0,0,1.3,1.24A3.12,3.12,0,0,1,5,20.689a1.456,1.456,0,0,0,.408,1.744A11.888,11.888,0,0,0,8.9,24.441a1.6,1.6,0,0,0,.5.088,1.472,1.472,0,0,0,1.2-.624,3.1,3.1,0,0,1,2.56-1.344,3.136,3.136,0,0,1,2.512,1.264,1.472,1.472,0,0,0,1.728.488A12,12,0,0,0,20.6,22.4a1.48,1.48,0,0,0,.432-1.688,3.12,3.12,0,0,1,2.5-4.312,1.48,1.48,0,0,0,1.256-1.216A11.6,11.6,0,0,0,25,13.161a11.486,11.486,0,0,0-.2-2.138,1.464,1.464,0,0,0-1.232-1.19ZM17,13.161a4,4,0,1,1-4-4,4,4,0,0,1,4,4Z" transform="translate(0 0)" fill="#87c3c4"/>
  </g>
</svg>
