<svg xmlns="http://www.w3.org/2000/svg" width="22" height="21.013" viewBox="0 0 22 21.013">
  <g id="power" transform="translate(-123.042 -140)">
    <path id="Path_82" data-name="Path 82" d="M134.043,207.953a10.991,10.991,0,0,1-7.375-19.15,1.751,1.751,0,1,1,2.348,2.6,7.494,7.494,0,1,0,10.053,0,1.751,1.751,0,1,1,2.348-2.6,10.992,10.992,0,0,1-7.375,19.149Z" transform="translate(0 -46.94)" fill="#87c3c4"/>
    <path id="Path_83" data-name="Path 83" d="M441.751,149.4A1.751,1.751,0,0,1,440,147.644v-5.893a1.751,1.751,0,1,1,3.5,0v5.893A1.751,1.751,0,0,1,441.751,149.4Z" transform="translate(-307.708 0)" fill="#87c3c4"/>
  </g>
</svg>
