<svg id="user" xmlns="http://www.w3.org/2000/svg" width="20" height="23.972" viewBox="0 0 20 23.972">
  <path id="Path_79" data-name="Path 79" d="M92.805,11.547a5.587,5.587,0,0,0,4.083-1.692,5.586,5.586,0,0,0,1.691-4.082,5.587,5.587,0,0,0-1.692-4.082,5.772,5.772,0,0,0-8.165,0,5.587,5.587,0,0,0-1.692,4.082,5.587,5.587,0,0,0,1.692,4.083A5.588,5.588,0,0,0,92.805,11.547Zm0,0" transform="translate(-82.956)" fill="#578182"/>
  <path id="Path_80" data-name="Path 80" d="M19.952,254.17a14.261,14.261,0,0,0-.194-1.515,11.933,11.933,0,0,0-.373-1.523,7.522,7.522,0,0,0-.626-1.42,5.36,5.36,0,0,0-.944-1.23,4.162,4.162,0,0,0-1.356-.852,4.687,4.687,0,0,0-1.731-.313,1.757,1.757,0,0,0-.938.4c-.281.183-.61.4-.978.63a5.6,5.6,0,0,1-1.265.557,4.912,4.912,0,0,1-3.094,0,5.588,5.588,0,0,1-1.264-.557c-.364-.232-.693-.445-.978-.631a1.755,1.755,0,0,0-.938-.4,4.681,4.681,0,0,0-1.731.314,4.159,4.159,0,0,0-1.356.852,5.361,5.361,0,0,0-.944,1.23,7.538,7.538,0,0,0-.626,1.421,11.962,11.962,0,0,0-.372,1.523,14.212,14.212,0,0,0-.194,1.515c-.032.459-.048.935-.048,1.416A3.981,3.981,0,0,0,1.182,258.6a4.256,4.256,0,0,0,3.046,1.111H15.771a4.255,4.255,0,0,0,3.046-1.111A3.979,3.979,0,0,0,20,255.586C20,255.1,19.984,254.627,19.952,254.17Zm0,0" transform="translate(0 -235.737)" fill="#578182"/>
</svg>
