<svg xmlns="http://www.w3.org/2000/svg" width="24" height="21.682" viewBox="0 0 24 21.682">
  <path id="wallet_1_" data-name="wallet (1)" d="M16.069,15.48v1.655a4.139,4.139,0,0,0,4.138,4.138h3.31V22.1a2.49,2.49,0,0,1-2.483,2.483H4.483A2.49,2.49,0,0,1,2,22.1V10.514A2.485,2.485,0,0,1,4.483,8.031H21.034a2.485,2.485,0,0,1,2.483,2.483v.828h-3.31A4.139,4.139,0,0,0,16.069,15.48Zm9.931,0v1.655a2.492,2.492,0,0,1-2.483,2.483h-3.31a2.49,2.49,0,0,1-2.483-2.483V15.48A2.485,2.485,0,0,1,20.207,13h3.31A2.492,2.492,0,0,1,26,15.48Zm-4.138.828a.828.828,0,1,0-.828.828A.83.83,0,0,0,21.862,16.307ZM19.057,4.7a2.486,2.486,0,0,0-3.443-1.572L8.67,6.376H19.537Z" transform="translate(-2 -2.901)" fill="#87c3c4"/>
</svg>
