<svg xmlns="http://www.w3.org/2000/svg" width="16" height="16" viewBox="0 0 16 16">
  <g id="application" transform="translate(-3 -3)">
    <path id="Path_11" data-name="Path 11" d="M8.538,10.385H4.846A1.846,1.846,0,0,1,3,8.538V4.846A1.846,1.846,0,0,1,4.846,3H8.538a1.846,1.846,0,0,1,1.846,1.846V8.538A1.846,1.846,0,0,1,8.538,10.385ZM4.846,4.231a.615.615,0,0,0-.615.615V8.538a.615.615,0,0,0,.615.615H8.538a.615.615,0,0,0,.615-.615V4.846a.615.615,0,0,0-.615-.615Z" fill="#fff"/>
    <path id="Path_12" data-name="Path 12" d="M22.538,10.385H18.846A1.846,1.846,0,0,1,17,8.538V4.846A1.846,1.846,0,0,1,18.846,3h3.692a1.846,1.846,0,0,1,1.846,1.846V8.538A1.846,1.846,0,0,1,22.538,10.385ZM18.846,4.231a.615.615,0,0,0-.615.615V8.538a.615.615,0,0,0,.615.615h3.692a.615.615,0,0,0,.615-.615V4.846a.615.615,0,0,0-.615-.615Z" transform="translate(-5.385)" fill="#fff"/>
    <path id="Path_13" data-name="Path 13" d="M8.538,24.385H4.846A1.846,1.846,0,0,1,3,22.538V18.846A1.846,1.846,0,0,1,4.846,17H8.538a1.846,1.846,0,0,1,1.846,1.846v3.692A1.846,1.846,0,0,1,8.538,24.385ZM4.846,18.231a.615.615,0,0,0-.615.615v3.692a.615.615,0,0,0,.615.615H8.538a.615.615,0,0,0,.615-.615V18.846a.615.615,0,0,0-.615-.615Z" transform="translate(0 -5.385)" fill="#fff"/>
    <path id="Path_14" data-name="Path 14" d="M20.692,24.385a3.692,3.692,0,1,1,3.692-3.692A3.692,3.692,0,0,1,20.692,24.385Zm0-6.154a2.462,2.462,0,1,0,2.462,2.462A2.462,2.462,0,0,0,20.692,18.231Z" transform="translate(-5.385 -5.385)" fill="#fff"/>
  </g>
</svg>
