<svg xmlns="http://www.w3.org/2000/svg" width="16" height="16" viewBox="0 0 16 16">
  <g id="calendar" transform="translate(-1 -1)">
    <path id="Path_20" data-name="Path 20" d="M14.867,3.667V4.2H1V3.667a1.6,1.6,0,0,1,1.6-1.6h.533V1.533a.533.533,0,1,1,1.067,0v.533H7.4V1.533a.533.533,0,1,1,1.067,0v.533h3.2V1.533a.533.533,0,0,1,1.067,0v.533h.533A1.6,1.6,0,0,1,14.867,3.667ZM17,13.267a3.733,3.733,0,1,1-3.733-3.733A3.734,3.734,0,0,1,17,13.267Zm-1.6,0a.533.533,0,0,0-.533-.533H13.8V11.667a.533.533,0,0,0-1.067,0v1.6a.533.533,0,0,0,.533.533h1.6A.533.533,0,0,0,15.4,13.267Zm-.533-8V8.744a4.693,4.693,0,0,0-1.6-.277,4.807,4.807,0,0,0-4.8,4.8,4.693,4.693,0,0,0,.277,1.6H2.6a1.6,1.6,0,0,1-1.6-1.6v-8ZM5.8,12.2a.533.533,0,0,0-.533-.533H4.2a.533.533,0,0,0,0,1.067H5.267A.533.533,0,0,0,5.8,12.2Zm0-2.133a.533.533,0,0,0-.533-.533H4.2a.533.533,0,1,0,0,1.067H5.267A.533.533,0,0,0,5.8,10.067Zm0-2.133A.533.533,0,0,0,5.267,7.4H4.2a.533.533,0,1,0,0,1.067H5.267A.533.533,0,0,0,5.8,7.933Zm3.2,0A.533.533,0,0,0,8.467,7.4H7.4a.533.533,0,1,0,0,1.067H8.467A.533.533,0,0,0,9,7.933Z" fill="#578182"/>
  </g>
</svg>
