<svg xmlns="http://www.w3.org/2000/svg" width="15" height="12" viewBox="0 0 15 12">
  <g id="category" transform="translate(-2 -4)">
    <path id="Path_46" data-name="Path 46" d="M5.75,4a.75.75,0,0,1,.75.75V8.5a.75.75,0,0,1-.75.75h-3A.75.75,0,0,1,2,8.5V4.75A.75.75,0,0,1,2.75,4Z" fill="#fff"/>
    <path id="Path_47" data-name="Path 47" d="M5.75,13a.75.75,0,0,1,.75.75V17.5a.75.75,0,0,1-.75.75h-3A.75.75,0,0,1,2,17.5V13.75A.75.75,0,0,1,2.75,13Z" transform="translate(0 -2.25)" fill="#fff"/>
    <path id="Path_48" data-name="Path 48" d="M18.25,4a.75.75,0,0,1,.75.75V8.5a.75.75,0,0,1-.75.75h-7.5A.75.75,0,0,1,10,8.5V4.75A.75.75,0,0,1,10.75,4Z" transform="translate(-2)" fill="#fff"/>
    <path id="Path_49" data-name="Path 49" d="M18.25,13a.75.75,0,0,1,.75.75V17.5a.75.75,0,0,1-.75.75h-7.5A.75.75,0,0,1,10,17.5V13.75a.75.75,0,0,1,.75-.75Z" transform="translate(-2 -2.25)" fill="#fff"/>
  </g>
</svg>
