<svg xmlns="http://www.w3.org/2000/svg" width="5.6" height="6" viewBox="0 0 5.6 6">
  <g id="Layer_2" data-name="Layer 2" transform="translate(-2 -1)" opacity="0.5">
    <path id="Path_33" data-name="Path 33" d="M2.2,5.4h.4V9.5a.706.706,0,0,0,.7.7h3A.706.706,0,0,0,7,9.5V5.4h.4a.2.2,0,0,0,0-.4H2.2a.2.2,0,1,0,0,.4Zm4.4,0V9.5a.3.3,0,0,1-.3.3h-3A.3.3,0,0,1,3,9.5V5.4Z" transform="translate(0 -3.2)"/>
    <path id="Path_34" data-name="Path 34" d="M11.2,1.4h1.6a.2.2,0,0,0,0-.4H11.2a.2.2,0,0,0,0,.4Z" transform="translate(-7.2)"/>
    <path id="Path_35" data-name="Path 35" d="M11.88,13.8a.2.2,0,0,0,.2-.2V11.2a.2.2,0,0,0-.4,0v2.4A.2.2,0,0,0,11.88,13.8Z" transform="translate(-7.744 -8)"/>
    <path id="Path_36" data-name="Path 36" d="M18.52,13.8a.2.2,0,0,0,.2-.2V11.2a.2.2,0,0,0-.4,0v2.4A.2.2,0,0,0,18.52,13.8Z" transform="translate(-13.056 -8)"/>
  </g>
</svg>
