<svg xmlns="http://www.w3.org/2000/svg" width="16" height="16.8" viewBox="0 0 16 16.8">
  <g id="document" transform="translate(-2 -1)">
    <path id="Path_73" data-name="Path 73" d="M2.984,1h6.5a.992.992,0,0,1,.984,1V3.1a1.852,1.852,0,0,1-.5,1.144l-2.112,1.9a1.615,1.615,0,0,0-.488,1.144V9.432a1.141,1.141,0,0,1-.44.848l-.7.456a1,1,0,0,1-1.528-.848V7.24A1.969,1.969,0,0,0,4.32,6.192l-1.872-2A1.65,1.65,0,0,1,2,3.2V2.048A1,1,0,0,1,2.984,1Z" transform="translate(0)" fill="#578182"/>
    <path id="Path_74" data-name="Path 74" d="M14,2H12.08a.4.4,0,0,0-.4.4v.9a3.048,3.048,0,0,1-.84,1.992L8.664,7.232c-.024.056-.064.136-.088.2v2.2a2.325,2.325,0,0,1-1.024,1.88l-.656.424a2.209,2.209,0,0,1-1.184.344A2.233,2.233,0,0,1,4.64,12a2.174,2.174,0,0,1-.918-.981A1.56,1.56,0,0,1,3.6,10.35V8.568a.375.375,0,0,0-.12-.28l-.8-.8a.4.4,0,0,0-.68.28V14a4,4,0,0,0,4,4h8a4,4,0,0,0,4-4V6A4,4,0,0,0,14,2Zm.8,12.6H9.2a.6.6,0,1,1,0-1.2h5.6a.6.6,0,0,1,0,1.2Zm0-3.2h-4a.6.6,0,1,1,0-1.2h4a.6.6,0,0,1,0,1.2Z" transform="translate(0 -0.2)" fill="#578182"/>
  </g>
</svg>
