<svg xmlns="http://www.w3.org/2000/svg" width="6" height="6" viewBox="0 0 6 6">
  <g id="edit_1_" data-name="edit (1)" transform="translate(-6.014 -6.031)" opacity="0.5">
    <g id="Group_7" data-name="Group 7" transform="translate(6.371 6.298)">
      <path id="Path_40" data-name="Path 40" d="M9.336,12.413a.231.231,0,0,1-.163-.394l3.608-3.608a.231.231,0,1,1,.327.327L9.5,12.346A.23.23,0,0,1,9.336,12.413Z" transform="translate(-9.105 -8.343)"/>
    </g>
    <g id="Group_8" data-name="Group 8" transform="translate(6.014 9.906)">
      <path id="Path_41" data-name="Path 41" d="M6.246,41.721a.234.234,0,0,1-.049-.005.231.231,0,0,1-.177-.274l.357-1.663a.231.231,0,1,1,.452.1l-.357,1.663A.231.231,0,0,1,6.246,41.721Z" transform="translate(-6.015 -39.597)"/>
    </g>
    <g id="Group_9" data-name="Group 9" transform="translate(7.677 7.604)">
      <path id="Path_42" data-name="Path 42" d="M20.649,23.727a.231.231,0,0,1-.163-.394l3.608-3.608a.231.231,0,0,1,.327.327L20.812,23.66A.23.23,0,0,1,20.649,23.727Z" transform="translate(-20.418 -19.657)"/>
    </g>
    <g id="Group_10" data-name="Group 10" transform="translate(6.014 11.212)">
      <path id="Path_43" data-name="Path 43" d="M6.245,51.729a.231.231,0,0,1-.048-.457l1.663-.357a.231.231,0,0,1,.1.452l-1.663.357A.226.226,0,0,1,6.245,51.729Z" transform="translate(-6.014 -50.91)"/>
    </g>
    <g id="Group_11" data-name="Group 11" transform="translate(9.326 6.951)">
      <path id="Path_44" data-name="Path 44" d="M36.239,15.768a.23.23,0,0,1-.163-.068L34.77,14.394a.231.231,0,0,1,.327-.327L36.4,15.374a.231.231,0,0,1-.163.394Z" transform="translate(-34.702 -14)"/>
    </g>
    <g id="Group_12" data-name="Group 12" transform="translate(9.979 6.031)">
      <path id="Path_45" data-name="Path 45" d="M41.894,8.066a.231.231,0,0,1-.163-.394.693.693,0,0,0-.98-.98.231.231,0,0,1-.327-.327A1.155,1.155,0,0,1,42.058,8a.23.23,0,0,1-.163.068Z" transform="translate(-40.357 -6.031)"/>
    </g>
  </g>
</svg>
