<svg xmlns="http://www.w3.org/2000/svg" width="16.514" height="16.518" viewBox="0 0 16.514 16.518">
  <path id="house-chimney-blank" d="M15.138,3.882V1.719a1.032,1.032,0,0,0-2.064,0v.749L10.374.646a3.766,3.766,0,0,0-4.234,0L1.668,3.664A3.781,3.781,0,0,0,0,6.8v5.927a3.789,3.789,0,0,0,3.785,3.785H12.73a3.789,3.789,0,0,0,3.785-3.785V6.8a3.779,3.779,0,0,0-1.376-2.919Zm-.688,8.846a1.722,1.722,0,0,1-1.72,1.72H3.785a1.722,1.722,0,0,1-1.72-1.72V6.8a1.718,1.718,0,0,1,.758-1.426L7.3,2.357a1.707,1.707,0,0,1,1.923,0l4.473,3.018A1.72,1.72,0,0,1,14.45,6.8v5.927Z" transform="translate(0 0.005)" fill="#fff"/>
</svg>
