<svg xmlns="http://www.w3.org/2000/svg" width="12.001" height="16" viewBox="0 0 12.001 16">
  <path id="lightbulb-dollar" d="M13,1.525A6,6,0,0,0,3.05,5.216,5.959,5.959,0,0,0,4.912,10.39a4.175,4.175,0,0,1,1.421,3.044v.107A2.463,2.463,0,0,0,8.793,16h.413a2.463,2.463,0,0,0,2.46-2.46v-.366a3.549,3.549,0,0,1,1.288-2.666A6,6,0,0,0,13,1.525ZM9.206,14.668H8.793a1.128,1.128,0,0,1-1.127-1.127v-.107c0-.033,0-.067,0-.1h2.668v.207a1.128,1.128,0,0,1-1.127,1.127Zm2.87-5.161A5.111,5.111,0,0,0,10.492,12H7.459A5.768,5.768,0,0,0,5.821,9.414,4.665,4.665,0,0,1,8.454,1.365a4.979,4.979,0,0,1,.552-.031,4.612,4.612,0,0,1,3.1,1.185,4.662,4.662,0,0,1-.032,6.988ZM11.667,8a2,2,0,0,1-2,2v.667a.667.667,0,1,1-1.333,0V10H8.155A2.007,2.007,0,0,1,6.423,9a.666.666,0,1,1,1.153-.667.671.671,0,0,0,.578.333H9.666A.667.667,0,0,0,10.333,8,.512.512,0,0,0,9.9,7.494L7.876,7.156A1.841,1.841,0,0,1,6.333,5.334a2,2,0,0,1,2-2V2.667a.667.667,0,1,1,1.333,0v.667h.179a2.008,2.008,0,0,1,1.732,1A.666.666,0,1,1,10.423,5a.67.67,0,0,0-.578-.333H8.333a.667.667,0,0,0-.667.667.512.512,0,0,0,.429.507l2.027.338A1.841,1.841,0,0,1,11.667,8Z" transform="translate(-2.999 -0.002)" fill="#fff"/>
</svg>
