<svg xmlns="http://www.w3.org/2000/svg" width="16" height="16" viewBox="0 0 16 16">
  <g id="Layer_93" data-name="Layer 93" transform="translate(-2 -2)">
    <path id="Path_21" data-name="Path 21" d="M15.6,4.4h-.8V2.8a.8.8,0,1,0-1.6,0V4.4H6.8V2.8a.8.8,0,1,0-1.6,0V4.4H4.4A2.4,2.4,0,0,0,2,6.8v.8H18V6.8A2.4,2.4,0,0,0,15.6,4.4Z" fill="#578182"/>
    <path id="Path_22" data-name="Path 22" d="M2,17.4a2.4,2.4,0,0,0,2.4,2.4H15.6A2.4,2.4,0,0,0,18,17.4V11H2Z" transform="translate(0 -1.8)" fill="#578182"/>
  </g>
</svg>
