<svg id="renewable" xmlns="http://www.w3.org/2000/svg" width="15.987" height="16" viewBox="0 0 15.987 16">
  <path id="Path_8" data-name="Path 8" d="M15.52,8a.507.507,0,0,0-.532.466A7,7,0,1,1,8,1a6.918,6.918,0,0,1,4.575,1.717l-.429.429A.5.5,0,0,0,12.5,4h1.667a.5.5,0,0,0,.5-.5V1.833a.5.5,0,0,0-.853-.353l-.531.531A7.905,7.905,0,0,0,8,0a8,8,0,1,0,7.986,8.533A.5.5,0,0,0,15.52,8Z" fill="#fff"/>
  <path id="Path_9" data-name="Path 9" d="M13.661,7.217l-3.5-1.191a.492.492,0,0,0-.321,0l-3.5,1.191A.5.5,0,0,0,6,7.691v2.679c0,3.269,3.649,4.859,3.8,4.925a.5.5,0,0,0,.391,0c.155-.067,3.8-1.655,3.8-4.925V7.691a.5.5,0,0,0-.339-.473Zm-1.47,2.528-1.833,2.333a.667.667,0,0,1-.958.095l-1.167-1A.666.666,0,0,1,9.1,10.161l.639.547,1.4-1.786a.666.666,0,0,1,1.049.823Z" transform="translate(-2 -2)" fill="#fff"/>
</svg>
