<svg xmlns="http://www.w3.org/2000/svg" width="15" height="15.961" viewBox="0 0 15 15.961">
  <g id="sync" transform="translate(-0.5 0.1)">
    <path id="Path_71" data-name="Path 71" d="M2.079,4.716a.746.746,0,0,1,.789-.789h8.368L10.132,5.032a.762.762,0,0,0,0,1.105.743.743,0,0,0,1.105,0l2.447-2.447a.763.763,0,0,0,0-1.105L11.237.137a.763.763,0,0,0-1.105,0,.763.763,0,0,0,0,1.105l1.105,1.105H2.868A2.326,2.326,0,0,0,.5,4.716V8.268a.746.746,0,0,0,.789.789.746.746,0,0,0,.789-.789Z" fill="#fff"/>
    <path id="Path_72" data-name="Path 72" d="M15.132,8.5a.746.746,0,0,0-.789.789v3.553a.746.746,0,0,1-.789.789H5.184l1.105-1.105a.782.782,0,0,0-1.105-1.105L2.737,13.868a.763.763,0,0,0,0,1.105l2.447,2.447a.743.743,0,0,0,1.105,0,.763.763,0,0,0,0-1.105L5.184,15.211h8.368a2.326,2.326,0,0,0,2.368-2.368V9.289a.746.746,0,0,0-.789-.789Z" transform="translate(-0.421 -1.811)" fill="#fff"/>
  </g>
</svg>
