<svg xmlns="http://www.w3.org/2000/svg" width="26.541" height="25.011" viewBox="0 0 26.541 25.011">
  <g id="warning_2_" data-name="warning (2)" transform="translate(0 -14.759)">
    <g id="Group_72" data-name="Group 72" transform="translate(0 14.759)">
      <path id="Path_79" data-name="Path 79" d="M25.989,33.9,16.614,16.662a3.888,3.888,0,0,0-6.687,0L.552,33.9A3.886,3.886,0,0,0,3.895,39.77H22.646A3.887,3.887,0,0,0,25.989,33.9ZM13.271,36.659A1.555,1.555,0,1,1,14.826,35.1,1.557,1.557,0,0,1,13.271,36.659Zm1.555-6.22a1.555,1.555,0,1,1-3.11,0V22.663a1.555,1.555,0,0,1,3.11,0Z" transform="translate(0 -14.759)" fill="#fff"/>
    </g>
  </g>
</svg>
